#Comment line ignore any data following # character 
#Hierarchical Translation and Rotation (.htr) file 
[Header]	
#Header keywords are followed by a single value 
FileType HTR		#Single word string
DataType HTRS		#Translation followed by rotation and scale data
FileVersion 1		#integer
NumSegments 84		#integer
NumFrames 2		#integer
DataFrameRate 30		#integer, data frame rate in this file
EulerRotationOrder ZYX
CalibrationUnits mm
RotationUnits Degrees
GlobalAxisofGravity Y
BoneLengthAxis Y
ScaleFactor 1.00
[SegmentNames&Hierarchy]
#CHILD	PARENT
MASTER GLOBAL
root MASTER
chest root
L_mid_tent01 root
R_mid_tent01 root
spine01 root
Bip01_Neck chest
L_humerus chest
R_humerus chest
weapon_bone chest
Bip01_Head Bip01_Neck
eye_left_bone Bip01_Head
eye_right_bone Bip01_Head
L_forearm L_humerus
L_front_hand L_forearm
L_weapon_bone L_forearm
L_front_hand01_01 L_front_hand
L_front_hand02_01 L_front_hand
L_front_hand03_01 L_front_hand
L_front_hand01_02 L_front_hand01_01
L_front_hand02_02 L_front_hand02_01
L_front_hand03_02 L_front_hand03_01
R_forearm R_humerus
R_front_hand R_forearm
R_weapon_bone R_forearm
R_front_hand01_01 R_front_hand
R_front_hand02_01 R_front_hand
R_front_hand03_01 R_front_hand
R_front_hand01_02 R_front_hand01_01
R_front_hand02_02 R_front_hand02_01
R_front_hand03_02 R_front_hand03_01
null_rope01_connect L_mid_tent01
Rope1_Seg01 null_rope01_connect
Rope1_Seg02 Rope1_Seg01
Rope1_Seg03 Rope1_Seg02
Rope1_Seg04 Rope1_Seg03
Rope1_Seg05 Rope1_Seg04
Rope1_Seg06 Rope1_Seg05
Rope1_Seg07 Rope1_Seg06
Rope1_Seg09 Rope1_Seg07
L_mid_hand01 Rope1_Seg09
L_mid_hand02 Rope1_Seg09
L_mid_hand03 Rope1_Seg09
null_rope02_connect R_mid_tent01
Rope2_Seg01 null_rope02_connect
Rope2_Seg02 Rope2_Seg01
Rope2_Seg03 Rope2_Seg02
Rope2_Seg04 Rope2_Seg03
Rope2_Seg05 Rope2_Seg04
Rope2_Seg06 Rope2_Seg05
Rope2_Seg07 Rope2_Seg06
Rope2_Seg09 Rope2_Seg07
R_mid_hand01 Rope2_Seg09
R_mid_hand02 Rope2_Seg09
R_mid_hand03 Rope2_Seg09
spine02 spine01
spine03 spine02
pelvis spine03
null_rope03_connect pelvis
null_rope04_connect pelvis
Rope3_Seg01 null_rope03_connect
Rope3_Seg02 Rope3_Seg01
Rope3_Seg03 Rope3_Seg02
Rope3_Seg04 Rope3_Seg03
Rope3_Seg05 Rope3_Seg04
Rope3_Seg06 Rope3_Seg05
Rope3_Seg07 Rope3_Seg06
Rope3_Seg08 Rope3_Seg07
Rope3_Seg09 Rope3_Seg08
R_rear_hand01 Rope3_Seg09
R_rear_hand02 Rope3_Seg09
R_rear_hand03 Rope3_Seg09
Rope4_Seg01 null_rope04_connect
Rope4_Seg02 Rope4_Seg01
Rope4_Seg03 Rope4_Seg02
Rope4_Seg04 Rope4_Seg03
Rope4_Seg05 Rope4_Seg04
Rope4_Seg06 Rope4_Seg05
Rope4_Seg07 Rope4_Seg06
Rope4_Seg08 Rope4_Seg07
Rope4_Seg09 Rope4_Seg08
L_rear_hand01 Rope4_Seg09
L_rear_hand02 Rope4_Seg09
L_rear_hand03 Rope4_Seg09
[BasePosition]
#SegmentName Tx, Ty, Tz, Rx, Ry, Rz, BoneLength
MASTER 0.000000 0.000000 0.000000 -90.000000 0.000000 0.000000 10.000000 
root 0.000000 0.000000 0.000000 0.000000 0.000000 0.000000 10.000000 
chest 0.000000 0.000000 0.000000 0.000000 0.000000 0.000000 10.000000 
L_mid_tent01 0.000000 0.000000 0.000000 0.000000 0.000000 0.000000 10.000000 
R_mid_tent01 0.000000 0.000000 0.000000 0.000000 0.000000 0.000000 10.000000 
spine01 0.000000 0.000000 0.000000 0.000000 0.000000 0.000000 10.000000 
Bip01_Neck 0.000000 0.000000 0.000000 0.000000 0.000000 0.000000 10.000000 
L_humerus 0.000000 0.000000 0.000000 0.000000 0.000000 0.000000 10.000000 
R_humerus 0.000000 0.000000 0.000000 0.000000 0.000000 0.000000 10.000000 
weapon_bone 0.000000 0.000000 0.000000 0.000000 0.000000 0.000000 10.000000 
Bip01_Head 0.000000 0.000000 0.000000 0.000000 0.000000 0.000000 10.000000 
eye_left_bone 0.000000 0.000000 0.000000 0.000000 0.000000 0.000000 10.000000 
eye_right_bone 0.000000 0.000000 0.000000 0.000000 0.000000 0.000000 10.000000 
L_forearm 0.000000 0.000000 0.000000 0.000000 0.000000 0.000000 10.000000 
L_front_hand 0.000000 0.000000 0.000000 0.000000 0.000000 0.000000 10.000000 
L_weapon_bone 0.000000 0.000000 0.000000 0.000000 0.000000 0.000000 10.000000 
L_front_hand01_01 0.000000 0.000000 0.000000 0.000000 0.000000 0.000000 10.000000 
L_front_hand02_01 0.000000 0.000000 0.000000 0.000000 0.000000 0.000000 10.000000 
L_front_hand03_01 0.000000 0.000000 0.000000 0.000000 0.000000 0.000000 10.000000 
L_front_hand01_02 0.000000 0.000000 0.000000 0.000000 0.000000 0.000000 10.000000 
L_front_hand02_02 0.000000 0.000000 0.000000 0.000000 0.000000 0.000000 10.000000 
L_front_hand03_02 0.000000 0.000000 0.000000 0.000000 0.000000 0.000000 10.000000 
R_forearm 0.000000 0.000000 0.000000 0.000000 0.000000 0.000000 10.000000 
R_front_hand 0.000000 0.000000 0.000000 0.000000 0.000000 0.000000 10.000000 
R_weapon_bone 0.000000 0.000000 0.000000 0.000000 0.000000 0.000000 10.000000 
R_front_hand01_01 0.000000 0.000000 0.000000 0.000000 0.000000 0.000000 10.000000 
R_front_hand02_01 0.000000 0.000000 0.000000 0.000000 0.000000 0.000000 10.000000 
R_front_hand03_01 0.000000 0.000000 0.000000 0.000000 0.000000 0.000000 10.000000 
R_front_hand01_02 0.000000 0.000000 0.000000 0.000000 0.000000 0.000000 10.000000 
R_front_hand02_02 0.000000 0.000000 0.000000 0.000000 0.000000 0.000000 10.000000 
R_front_hand03_02 0.000000 0.000000 0.000000 0.000000 0.000000 0.000000 10.000000 
null_rope01_connect 0.000000 0.000000 0.000000 0.000000 0.000000 0.000000 10.000000 
Rope1_Seg01 0.000000 0.000000 0.000000 0.000000 0.000000 0.000000 10.000000 
Rope1_Seg02 0.000000 0.000000 0.000000 0.000000 0.000000 0.000000 10.000000 
Rope1_Seg03 0.000000 0.000000 0.000000 0.000000 0.000000 0.000000 10.000000 
Rope1_Seg04 0.000000 0.000000 0.000000 0.000000 0.000000 0.000000 10.000000 
Rope1_Seg05 0.000000 0.000000 0.000000 0.000000 0.000000 0.000000 10.000000 
Rope1_Seg06 0.000000 0.000000 0.000000 0.000000 0.000000 0.000000 10.000000 
Rope1_Seg07 0.000000 0.000000 0.000000 0.000000 0.000000 0.000000 10.000000 
Rope1_Seg09 0.000000 0.000000 0.000000 0.000000 0.000000 0.000000 10.000000 
L_mid_hand01 0.000000 0.000000 0.000000 0.000000 0.000000 0.000000 10.000000 
L_mid_hand02 0.000000 0.000000 0.000000 0.000000 0.000000 0.000000 10.000000 
L_mid_hand03 0.000000 0.000000 0.000000 0.000000 0.000000 0.000000 10.000000 
null_rope02_connect 0.000000 0.000000 0.000000 0.000000 0.000000 0.000000 10.000000 
Rope2_Seg01 0.000000 0.000000 0.000000 0.000000 0.000000 0.000000 10.000000 
Rope2_Seg02 0.000000 0.000000 0.000000 0.000000 0.000000 0.000000 10.000000 
Rope2_Seg03 0.000000 0.000000 0.000000 0.000000 0.000000 0.000000 10.000000 
Rope2_Seg04 0.000000 0.000000 0.000000 0.000000 0.000000 0.000000 10.000000 
Rope2_Seg05 0.000000 0.000000 0.000000 0.000000 0.000000 0.000000 10.000000 
Rope2_Seg06 0.000000 0.000000 0.000000 0.000000 0.000000 0.000000 10.000000 
Rope2_Seg07 0.000000 0.000000 0.000000 0.000000 0.000000 0.000000 10.000000 
Rope2_Seg09 0.000000 0.000000 0.000000 0.000000 0.000000 0.000000 10.000000 
R_mid_hand01 0.000000 0.000000 0.000000 0.000000 0.000000 0.000000 10.000000 
R_mid_hand02 0.000000 0.000000 0.000000 0.000000 0.000000 0.000000 10.000000 
R_mid_hand03 0.000000 0.000000 0.000000 0.000000 0.000000 0.000000 10.000000 
spine02 0.000000 0.000000 0.000000 0.000000 0.000000 0.000000 10.000000 
spine03 0.000000 0.000000 0.000000 0.000000 0.000000 0.000000 10.000000 
pelvis 0.000000 0.000000 0.000000 0.000000 0.000000 0.000000 10.000000 
null_rope03_connect 0.000000 0.000000 0.000000 0.000000 0.000000 0.000000 10.000000 
null_rope04_connect 0.000000 0.000000 0.000000 0.000000 0.000000 0.000000 10.000000 
Rope3_Seg01 0.000000 0.000000 0.000000 0.000000 0.000000 0.000000 10.000000 
Rope3_Seg02 0.000000 0.000000 0.000000 0.000000 0.000000 0.000000 10.000000 
Rope3_Seg03 0.000000 0.000000 0.000000 0.000000 0.000000 0.000000 10.000000 
Rope3_Seg04 0.000000 0.000000 0.000000 0.000000 0.000000 0.000000 10.000000 
Rope3_Seg05 0.000000 0.000000 0.000000 0.000000 0.000000 0.000000 10.000000 
Rope3_Seg06 0.000000 0.000000 0.000000 0.000000 0.000000 0.000000 10.000000 
Rope3_Seg07 0.000000 0.000000 0.000000 0.000000 0.000000 0.000000 10.000000 
Rope3_Seg08 0.000000 0.000000 0.000000 0.000000 0.000000 0.000000 10.000000 
Rope3_Seg09 0.000000 0.000000 0.000000 0.000000 0.000000 0.000000 10.000000 
R_rear_hand01 0.000000 0.000000 0.000000 0.000000 0.000000 0.000000 10.000000 
R_rear_hand02 0.000000 0.000000 0.000000 0.000000 0.000000 0.000000 10.000000 
R_rear_hand03 0.000000 0.000000 0.000000 0.000000 0.000000 0.000000 10.000000 
Rope4_Seg01 0.000000 0.000000 0.000000 0.000000 0.000000 0.000000 10.000000 
Rope4_Seg02 0.000000 0.000000 0.000000 0.000000 0.000000 0.000000 10.000000 
Rope4_Seg03 0.000000 0.000000 0.000000 0.000000 0.000000 0.000000 10.000000 
Rope4_Seg04 0.000000 0.000000 0.000000 0.000000 0.000000 0.000000 10.000000 
Rope4_Seg05 0.000000 0.000000 0.000000 0.000000 0.000000 0.000000 10.000000 
Rope4_Seg06 0.000000 0.000000 0.000000 0.000000 0.000000 0.000000 10.000000 
Rope4_Seg07 0.000000 0.000000 0.000000 0.000000 0.000000 0.000000 10.000000 
Rope4_Seg08 0.000000 0.000000 0.000000 0.000000 0.000000 0.000000 10.000000 
Rope4_Seg09 0.000000 0.000000 0.000000 0.000000 0.000000 0.000000 10.000000 
L_rear_hand01 0.000000 0.000000 0.000000 0.000000 0.000000 0.000000 10.000000 
L_rear_hand02 0.000000 0.000000 0.000000 0.000000 0.000000 0.000000 10.000000 
L_rear_hand03 0.000000 0.000000 0.000000 0.000000 0.000000 0.000000 10.000000 
#Beginning of Data. Separated by tabs
#Fr	Tx	Ty	Tz	Rx	Ry	Rz	SF
[MASTER]
2 0.000000 0.000000 0.000000 0.001660 0.001660 0.001660 0.000000
3 0.000000 0.000000 0.000000 0.001660 0.001660 0.001660 0.000000
[root]
2 -15.830116 -67.096107 1497.992920 -91.629700 -27.676081 -90.148109 1499.578247
3 -15.442935 -69.387108 1492.807129 -91.629700 -27.676086 -90.148117 1494.498657
[chest]
2 -84.512650 -34.090519 0.000000 -1.888050 0.943089 -178.206696 91.129311
3 -84.512650 -34.090519 0.000000 -1.888050 0.943089 -178.206696 91.129311
[L_mid_tent01]
2 27.299498 22.177568 -249.918274 4.284316 35.181122 82.187119 252.381165
3 27.299501 22.177572 -249.918274 4.682186 34.127941 83.006897 252.381165
[R_mid_tent01]
2 23.228794 24.509907 226.238495 160.081238 -46.282368 88.260841 228.744751
3 23.228794 24.509907 226.238495 159.742233 -45.501755 88.610146 228.744751
[spine01]
2 -0.361383 -0.195265 0.000000 0.001845 0.001451 13.654368 0.410763
3 -0.361383 -0.195265 0.000000 0.001845 0.001451 13.654368 0.410763
[Bip01_Neck]
2 165.484543 71.581718 0.000119 176.643677 -1.657967 43.431915 180.302734
3 165.484543 71.581718 0.000119 176.643677 -1.657967 43.431911 180.302734
[L_humerus]
2 -13.983130 -135.272980 -120.471481 156.317398 70.210045 -112.010239 181.680161
3 -13.983130 -135.272980 -120.471481 156.317398 70.210068 -112.010254 181.680161
[R_humerus]
2 -13.983309 -135.273102 125.287651 -172.382263 -66.903847 -92.554016 184.909012
3 -13.983309 -135.273102 125.287651 -172.382263 -66.903831 -92.553993 184.909012
[weapon_bone]
2 235.964890 -300.705902 0.000000 0.000000 -89.951546 -128.212341 382.234833
3 235.964890 -300.705902 0.000000 0.000000 -89.951546 -128.212341 382.234833
[Bip01_Head]
2 213.442520 185.720764 11.708597 4.965891 3.028567 -43.896420 283.173065
3 213.440613 185.726028 11.640245 4.965356 3.801409 -43.882862 283.172302
[eye_left_bone]
2 -24.626970 125.451866 -64.772606 0.000000 -90.000000 -99.840431 143.318359
3 -24.626970 125.451866 -64.772606 0.000000 -90.000000 -99.840431 143.318359
[eye_right_bone]
2 -24.626970 125.451866 64.327362 0.000000 -89.980217 80.156387 143.117676
3 -24.626970 125.451866 64.327362 0.000000 -89.972023 80.156380 143.117676
[L_forearm]
2 322.776093 0.000000 -0.000119 0.000119 -0.002344 -95.807457 322.776093
3 322.776093 0.000000 -0.000119 0.000119 -0.002344 -95.807457 322.776093
[L_front_hand]
2 241.149185 -0.042021 -3.300071 -178.667953 -1.835447 -27.422350 241.171753
3 241.149185 -0.042021 -3.300071 -178.667953 -1.835447 -27.422350 241.171753
[L_weapon_bone]
2 156.183838 0.000000 0.000000 0.000014 0.000007 0.000001 156.183838
3 156.183838 0.000000 0.000000 0.000014 0.000007 0.000001 156.183838
[L_front_hand01_01]
2 86.095154 20.947098 -0.655860 -0.366594 -0.477154 75.385574 88.609184
3 86.095154 20.947098 -0.655860 -0.366594 -0.477154 75.385574 88.609184
[L_front_hand02_01]
2 86.935165 -11.437475 24.513514 154.399796 -59.883835 -61.369587 91.046425
3 86.935165 -11.437475 24.513514 154.399796 -59.883835 -61.369587 91.046425
[L_front_hand03_01]
2 86.637497 -14.123976 -20.424902 -153.913849 58.118122 -62.702866 90.126129
3 86.637497 -14.123976 -20.424902 -153.913849 58.118122 -62.702866 90.126129
[L_front_hand01_02]
2 71.020905 -0.000179 0.000030 0.000321 -0.002325 -105.723465 71.020905
3 71.020905 -0.000179 0.000030 0.000320 -0.002325 -105.686226 71.020905
[L_front_hand02_02]
2 71.020927 -0.000119 0.000060 0.000321 -0.002325 -105.723465 71.020927
3 71.020927 -0.000119 0.000060 0.000320 -0.002325 -105.686226 71.020927
[L_front_hand03_02]
2 71.020905 -0.000060 0.000060 0.000321 -0.002325 -105.723465 71.020905
3 71.020905 -0.000060 0.000060 0.000320 -0.002325 -105.686226 71.020905
[R_forearm]
2 322.776428 -0.000060 0.000030 0.209504 0.012586 -94.339058 322.776428
3 322.776428 -0.000060 0.000030 0.209504 0.012586 -94.339050 322.776428
[R_front_hand]
2 238.847015 -0.006795 2.210259 -2.635298 -10.645461 -26.312504 238.857239
3 238.847015 -0.006795 2.210259 -2.635298 -10.645461 -26.312506 238.857239
[R_weapon_bone]
2 155.664093 0.002503 -0.000030 0.003487 0.001180 -90.988930 155.664078
3 155.664093 0.002503 -0.000030 0.003487 0.001180 -90.988930 155.664078
[R_front_hand01_01]
2 87.624611 14.231146 22.918642 -154.633499 -59.950619 61.746044 91.683487
3 87.624611 14.231146 22.918642 -154.633499 -59.950619 61.746044 91.683487
[R_front_hand02_01]
2 89.356956 14.367283 -19.491137 154.602661 58.302849 63.744389 92.579636
3 89.356956 14.367283 -19.491137 154.602661 58.302849 63.744389 92.579636
[R_front_hand03_01]
2 87.286232 -22.307278 -0.143439 0.162155 -0.423168 -75.767921 90.091743
3 87.286232 -22.307278 -0.143439 0.162155 -0.423168 -75.767921 90.091743
[R_front_hand01_02]
2 71.020905 0.000060 0.000119 0.002323 -0.000334 106.381721 71.020905
3 71.020905 0.000060 0.000119 0.002323 -0.000334 106.381714 71.020905
[R_front_hand02_02]
2 71.020844 -0.000030 -0.000119 0.002323 -0.000334 106.381721 71.020836
3 71.020844 -0.000030 -0.000119 0.002323 -0.000334 106.381714 71.020836
[R_front_hand03_02]
2 71.020905 0.000000 0.000030 0.002323 -0.000334 106.381721 71.020905
3 71.020905 0.000000 0.000030 0.002323 -0.000334 106.381714 71.020905
[null_rope01_connect]
2 328.732483 0.000000 -0.000238 -137.528687 -52.922764 174.476669 328.732483
3 328.732483 0.000000 -0.000238 -137.468842 -53.919888 173.674820 328.732483
[Rope1_Seg01]
2 -0.000038 -0.000114 0.000096 113.912483 42.323643 140.528046 0.000154
3 -0.000038 -0.000114 0.000097 115.892303 40.234692 144.404022 0.000155
[Rope1_Seg02]
2 139.999863 -0.000179 0.000000 0.111854 -10.218846 3.711416 139.999863
3 139.999863 -0.000179 0.000000 0.318911 -11.169330 3.618564 139.999863
[Rope1_Seg03]
2 139.999924 0.000060 -0.000060 -1.969345 -16.938192 4.932070 139.999924
3 139.999924 0.000060 -0.000060 -2.293694 -19.474081 5.235036 139.999924
[Rope1_Seg04]
2 139.999924 -0.000060 -0.000119 -8.849681 -24.824316 6.133588 139.999924
3 139.999924 -0.000060 -0.000119 -10.980420 -27.947323 5.961936 139.999924
[Rope1_Seg05]
2 139.999832 0.000119 -0.000060 2.432921 -8.595747 14.753205 139.999832
3 139.999832 0.000119 -0.000060 3.181107 -7.152797 13.592401 139.999832
[Rope1_Seg06]
2 139.999954 0.000119 -0.000060 5.001022 -2.314247 7.576057 139.999954
3 139.999954 0.000119 -0.000060 6.540075 -1.153209 7.774167 139.999954
[Rope1_Seg07]
2 139.999985 0.000060 0.000000 2.018346 -1.780307 3.666386 139.999985
3 139.999985 0.000060 0.000000 2.524494 -1.411585 3.711353 139.999985
[Rope1_Seg09]
2 121.602913 0.000119 -0.000089 -89.793175 -1.359789 0.847147 121.602913
3 121.602913 0.000119 -0.000089 -89.793175 -1.359789 0.847147 121.602913
[L_mid_hand01]
2 103.859421 1.038730 8.195221 128.584747 -66.574249 -36.738117 104.187431
3 103.859421 1.038730 8.195221 124.165955 -63.799015 -31.873352 104.187431
[L_mid_hand02]
2 105.572853 -4.139662 -10.864139 -167.717957 43.141708 -71.740593 106.211075
3 105.572853 -4.139662 -10.864139 -164.626358 42.318848 -67.191460 106.211075
[L_mid_hand03]
2 104.641464 17.579376 -3.913581 -6.429527 17.666080 73.526825 106.179977
3 104.641464 17.579376 -3.913581 -7.501869 17.251593 69.949562 106.179977
[null_rope02_connect]
2 328.732849 0.000179 -0.000119 -123.346771 42.077496 18.974087 328.732849
3 328.732849 0.000179 -0.000119 -122.942490 42.661186 19.742428 328.732849
[Rope2_Seg01]
2 -0.000075 0.000134 0.000153 -58.273945 41.170372 36.248055 0.000216
3 -0.000074 0.000134 0.000153 -58.802383 39.252666 34.160030 0.000216
[Rope2_Seg02]
2 139.999741 -0.000060 -0.000119 -0.530033 -8.840805 4.691896 139.999756
3 139.999741 -0.000060 -0.000119 -0.697751 -8.520197 5.054385 139.999756
[Rope2_Seg03]
2 140.000107 0.000030 0.000000 -0.771267 -11.969461 6.700169 140.000107
3 140.000107 0.000030 0.000000 -0.936311 -11.943669 7.479439 140.000107
[Rope2_Seg04]
2 139.999802 0.000000 -0.000060 -1.437494 -19.280956 10.725764 139.999802
3 139.999802 0.000000 -0.000060 -1.338742 -18.907776 11.912722 139.999802
[Rope2_Seg05]
2 139.999985 -0.000060 0.000119 -2.189865 -20.153698 8.687849 139.999985
3 139.999985 -0.000060 0.000119 -2.070894 -20.880661 9.501796 139.999985
[Rope2_Seg06]
2 139.999893 -0.000030 -0.000119 -0.658441 -6.878186 2.736833 139.999893
3 139.999893 -0.000030 -0.000119 -0.547047 -7.162540 2.984702 139.999893
[Rope2_Seg07]
2 139.999893 0.000060 -0.000060 -0.308390 -3.477118 1.411335 139.999893
3 139.999893 0.000060 -0.000060 -0.155381 -3.548131 1.555265 139.999893
[Rope2_Seg09]
2 121.338966 0.000089 -0.000060 33.793236 -1.359788 -0.847141 121.338966
3 121.338966 0.000089 -0.000060 33.793236 -1.359788 -0.847141 121.338966
[R_mid_hand01]
2 104.680779 11.144459 -10.335981 -16.756907 45.078602 69.693840 105.778534
3 104.680779 11.144459 -10.335981 -18.237753 44.607113 67.592667 105.778534
[R_mid_hand02]
2 104.070427 2.443552 8.231699 49.966972 -67.318741 38.315926 104.424065
3 104.070427 2.443552 8.231699 52.237907 -66.108360 35.844143 104.424065
[R_mid_hand03]
2 106.028137 -11.221827 -5.996406 -176.940826 15.523118 -75.998016 106.788818
3 106.028137 -11.221827 -5.996406 -176.510086 15.433296 -74.380737 106.788818
[spine02]
2 129.756927 0.001550 0.000119 -1.023899 -3.926965 6.770993 129.756927
3 129.756927 0.001550 0.000119 -1.023899 -3.926965 6.770993 129.756927
[spine03]
2 78.613846 0.087372 -4.898873 1.040681 4.146420 4.212376 78.766380
3 78.613846 0.087372 -4.898873 1.040681 4.146420 4.212376 78.766380
[pelvis]
2 169.435242 0.051022 0.000000 0.019518 -0.190233 -10.721436 169.435257
3 169.435242 0.051022 0.000000 0.019518 -0.190233 -10.721436 169.435257
[null_rope03_connect]
2 -1.257226 -2.466202 137.391083 -148.996582 -87.995338 -107.160866 137.418976
3 -1.257226 -2.466202 137.391083 -148.996368 -87.995132 -107.160530 137.418976
[null_rope04_connect]
2 -1.259640 -2.480268 -137.844437 -148.996582 -87.995338 -107.160866 137.872513
3 -1.259640 -2.480268 -137.844437 -148.996368 -87.995132 -107.160530 137.872513
[Rope3_Seg01]
2 0.000000 0.000000 0.000000 -141.043839 -39.259121 -66.256180 0.000000
3 0.000000 0.000000 0.000000 -141.899597 -39.031796 -64.713547 0.000000
[Rope3_Seg02]
2 139.999924 -0.000119 0.000060 -17.094923 5.675826 -33.221939 139.999924
3 139.999924 -0.000119 0.000060 -17.284430 6.184611 -32.085236 139.999924
[Rope3_Seg03]
2 139.999924 -0.000119 0.000119 -62.107922 21.930147 -48.682842 139.999924
3 139.999924 -0.000119 0.000119 -62.046265 23.769499 -48.864990 139.999924
[Rope3_Seg04]
2 139.999924 0.000119 0.000000 -22.820705 29.446123 -9.320927 139.999924
3 139.999924 0.000119 0.000000 -22.184645 29.746321 -9.844881 139.999924
[Rope3_Seg05]
2 139.999924 -0.000238 0.000060 -7.991736 28.057327 0.188802 139.999924
3 139.999924 -0.000238 0.000060 -8.210167 27.820486 -1.345426 139.999924
[Rope3_Seg06]
2 139.999893 -0.000119 -0.000060 -0.425374 10.161257 1.731539 139.999893
3 139.999893 -0.000119 -0.000060 -0.495199 10.085137 1.233991 139.999893
[Rope3_Seg07]
2 139.999771 0.000060 -0.000119 0.406093 5.128863 0.960491 139.999771
3 139.999771 0.000060 -0.000119 0.370646 5.100128 0.726110 139.999771
[Rope3_Seg08]
2 139.999985 -0.000060 0.000000 0.570857 2.820969 0.512918 139.999985
3 139.999985 -0.000060 0.000000 0.550220 2.799413 0.381201 139.999985
[Rope3_Seg09]
2 90.185997 -0.000179 -0.000060 89.793228 -1.359877 -0.847183 90.185997
3 90.185997 -0.000179 -0.000060 89.793228 -1.359877 -0.847183 90.185997
[R_rear_hand01]
2 103.366196 -6.073594 -10.757982 -177.375809 24.533825 -73.108765 104.101845
3 103.366196 -6.073594 -10.757982 -176.465668 24.425859 -70.909309 104.101845
[R_rear_hand02]
2 100.509819 12.039542 -7.992327 -13.406411 36.702328 71.277184 101.543350
3 100.509819 12.039542 -7.992327 -14.843726 36.213379 68.859123 101.543350
[R_rear_hand03]
2 101.539970 5.215704 5.435467 72.167244 -71.123337 20.795889 101.819031
3 101.539970 5.215704 5.435467 73.787918 -69.202950 19.069901 101.819031
[Rope4_Seg01]
2 -0.000019 -0.000074 -0.000153 53.816532 -27.661083 -110.312866 0.000171
3 -0.000018 -0.000071 -0.000153 53.642872 -26.866163 -110.154556 0.000169
[Rope4_Seg02]
2 139.999985 0.000060 0.000119 11.366155 -36.006809 7.991328 139.999985
3 139.999985 0.000060 0.000119 11.544443 -36.739418 8.766647 139.999985
[Rope4_Seg03]
2 139.999924 0.000000 -0.000238 49.349758 -45.838551 30.217663 139.999924
3 139.999924 0.000000 -0.000238 48.034283 -45.305332 31.847851 139.999924
[Rope4_Seg04]
2 139.999985 0.000000 0.000119 21.014944 -1.826703 25.394045 139.999985
3 139.999985 0.000000 0.000119 20.108759 -1.802011 25.004921 139.999985
[Rope4_Seg05]
2 139.999802 -0.000060 -0.000119 13.642175 8.308500 32.514992 139.999802
3 139.999802 -0.000060 -0.000119 13.425950 7.506958 32.438717 139.999802
[Rope4_Seg06]
2 139.999924 0.000000 0.000060 2.129908 7.194324 14.621763 139.999924
3 139.999924 0.000000 0.000060 2.168150 6.882186 14.840712 139.999924
[Rope4_Seg07]
2 139.999802 0.000000 0.000000 0.095552 3.156687 5.919261 139.999802
3 139.999802 0.000000 0.000000 0.108041 3.057005 6.023410 139.999802
[Rope4_Seg08]
2 139.999924 0.000000 0.000119 -1.667462 1.667634 3.121439 139.999924
3 139.999924 0.000000 0.000119 -1.665784 1.611468 3.174216 139.999924
[Rope4_Seg09]
2 90.185791 0.000060 0.000060 -135.617828 2.228885 0.850567 90.185791
3 90.185791 0.000060 0.000060 -135.617828 2.228885 0.850567 90.185791
[L_rear_hand01]
2 101.696655 -8.392275 -7.654577 -14.676043 -36.272404 110.857796 102.329041
3 101.696655 -8.392275 -7.654577 -18.919888 -34.466518 118.185951 102.329041
[L_rear_hand02]
2 102.726799 -1.568258 5.773216 73.610298 69.437729 160.740753 102.900848
3 102.726799 -1.568258 5.773216 77.226944 63.386848 164.679077 102.900848
[L_rear_hand03]
2 104.552910 9.721220 -10.420293 -176.571304 -24.441328 -108.830589 105.519653
3 104.552910 9.721220 -10.420293 -173.780411 -23.916803 -115.646591 105.519653
